<svg xmlns="http://www.w3.org/2000/svg" xmlns:xlink="http://www.w3.org/1999/xlink" width="24" height="24" version="1.1" style=""><rect id="backgroundrect" width="100%" height="100%" x="0" y="0" fill="none" stroke="none"/>
    <!-- Generator: Sketch 49.3 (51167) - http://www.bohemiancoding.com/sketch -->
    <title>menu</title>
    <desc>Created with Sketch.</desc>
    <defs/>
    
<g class="currentLayer" style=""><title>Layer 1</title><g id="menu" stroke="none" stroke-width="1" fill="#000000" fill-rule="evenodd" class="selected" fill-opacity="1">
        <path d="M23.5714286,9 L0.428571429,9 C0.191571429,9 0,9.2235 0,9.5 C0,9.7765 0.191571429,10 0.428571429,10 L23.5714286,10 C23.8084286,10 24,9.7765 24,9.5 C24,9.2235 23.8084286,9 23.5714286,9 Z M0.428571429,5 L23.5714286,5 C23.8084286,5 24,4.7765 24,4.5 C24,4.2235 23.8084286,4 23.5714286,4 L0.428571429,4 C0.191571429,4 0,4.2235 0,4.5 C0,4.7765 0.191571429,5 0.428571429,5 Z M23.5714286,19 L0.428571429,19 C0.191571429,19 0,19.2235 0,19.5 C0,19.7765 0.191571429,20 0.428571429,20 L23.5714286,20 C23.8084286,20 24,19.7765 24,19.5 C24,19.2235 23.8084286,19 23.5714286,19 Z M23.5714286,14 L0.428571429,14 C0.191571429,14 0,14.2235 0,14.5 C0,14.7765 0.191571429,15 0.428571429,15 L23.5714286,15 C23.8084286,15 24,14.7765 24,14.5 C24,14.2235 23.8084286,14 23.5714286,14 Z" id="Shape" fill="#000000" fill-rule="nonzero" fill-opacity="1"/>
    </g></g></svg>